<svg xmlns="http://www.w3.org/2000/svg" width="15.848" height="15.848" viewBox="0 0 15.848 15.848"><defs><style>.a{fill:#fff;}</style></defs><path class="a" d="M11.127,0H4.721A4.726,4.726,0,0,0,0,4.721v6.405a4.726,4.726,0,0,0,4.721,4.721h6.405a4.726,4.726,0,0,0,4.721-4.721V4.721A4.726,4.726,0,0,0,11.127,0Zm3.127,11.127a3.127,3.127,0,0,1-3.127,3.127H4.721a3.127,3.127,0,0,1-3.127-3.127V4.721A3.127,3.127,0,0,1,4.721,1.594h6.405a3.127,3.127,0,0,1,3.127,3.127v6.405Z"/><path class="a" d="M137.1,133a4.1,4.1,0,1,0,4.1,4.1A4.1,4.1,0,0,0,137.1,133Zm0,6.6a2.5,2.5,0,1,1,2.5-2.5A2.5,2.5,0,0,1,137.1,139.6Z" transform="translate(-129.175 -129.175)"/><circle class="a" cx="0.982" cy="0.982" r="0.982" transform="translate(11.048 2.874)"/></svg>