<svg xmlns="http://www.w3.org/2000/svg" width="114.539" height="19.92" viewBox="0 0 114.539 19.92">
  <g id="Grupo_1821" data-name="Grupo 1821" transform="translate(-2112.472 -728)">
    <g id="Grupo_1820" data-name="Grupo 1820">
      <ellipse id="Elipse_678" data-name="Elipse 678" cx="1.83" cy="1.76" rx="1.83" ry="1.76" transform="translate(2186.56 728)" fill="#FFFFFF"/>
      <path id="Caminho_7166" data-name="Caminho 7166" d="M2143.18,739.66a7.432,7.432,0,0,0-.34,1.37h-.07a6.524,6.524,0,0,0-.34-1.37l-2.47-6.75h-3.02l3.67,9.49a2.253,2.253,0,0,0,2.1,1.44h0a2.267,2.267,0,0,0,2.11-1.44l3.65-9.49h-2.79l-2.49,6.75Z" fill="#ffffff"/>
      <path id="Caminho_7167" data-name="Caminho 7167" d="M2159.08,736.55c0-2.26-1.83-3.77-4.82-3.77a5.25,5.25,0,0,0-5.44,5.56c0,3.32,2.17,5.51,5.76,5.51a5.519,5.519,0,0,0,4.48-1.88l-1.37-1.49a3.457,3.457,0,0,1-2.81,1.19,3.035,3.035,0,0,1-3.02-1.85l2.06.02c3.32.02,5.17-1.19,5.17-3.29Zm-5.58,1.71h-1.94v-.07c0-2.17,1.26-3.25,2.81-3.25,1.28,0,2.13.64,2.13,1.62,0,1.12-.85,1.72-3,1.69Z" fill="#ffffff"/>
      <path id="Caminho_7168" data-name="Caminho 7168" d="M2184.63,741.53c-.46,0-.62-.18-.62-.73V729.76h-2.79v4.59a3.9,3.9,0,0,0-3.36-1.58c-2.86,0-5.03,2.08-5.03,5.56,0,3.22,1.94,5.51,4.89,5.51a3.825,3.825,0,0,0,3.64-2.13h.02c.05,1.44.85,2.1,2.38,2.1a6.119,6.119,0,0,0,1.37-.16l-.11-2.17a2.177,2.177,0,0,1-.39.05Zm-3.41-2.9a2.829,2.829,0,0,1-2.79,2.88c-1.76,0-2.79-1.28-2.79-3.18s1.07-3.22,2.7-3.22a2.827,2.827,0,0,1,2.88,2.88v.64Z" fill="#ffffff"/>
      <rect id="Retângulo_962" data-name="Retângulo 962" width="2.79" height="10.79" transform="translate(2186.88 732.91)" fill="#FFFFFF"/>
      <path id="Caminho_7169" data-name="Caminho 7169" d="M2195.05,741.62l-.02-.07a16.042,16.042,0,0,0,5.38-6.23,1.749,1.749,0,0,0,.16-.71h0a1.7,1.7,0,0,0-1.7-1.7h-7.31v2.15h4.94a6.356,6.356,0,0,0,1.14-.07l.02.07a18.6,18.6,0,0,1-5.69,6.18,1.383,1.383,0,0,0-.55,1.1,1.366,1.366,0,0,0,1.37,1.37h7.96v-2.15h-4.6a5.516,5.516,0,0,0-1.1.07Z" fill="#ffffff"/>
      <path id="Caminho_7170" data-name="Caminho 7170" d="M2166.99,732.78a3.685,3.685,0,0,0-3.61,2.4h-.07c0-.24-.03-1.59-.09-2.26h-2.4v10.79h2.79v-5.6a2.714,2.714,0,0,1,2.58-2.95,2.027,2.027,0,0,1,2.1,2.31v6.24h2.79v-6.63C2171.08,734.59,2169.64,732.78,2166.99,732.78Z" fill="#ffffff"/>
      <path id="Caminho_7171" data-name="Caminho 7171" d="M2213.59,741.53c-.46,0-.62-.18-.62-.73v-7.89h-2.4c-.06.68-.1,2-.09,2.17h-.05a3.734,3.734,0,0,0-3.68-2.31c-3.02,0-4.96,2.26-4.96,5.51,0,3.48,2.13,5.56,4.96,5.56a3.7,3.7,0,0,0,3.59-2.06c.07,1.39.87,2.04,2.38,2.04a6.119,6.119,0,0,0,1.37-.16l-.11-2.17a2.177,2.177,0,0,1-.39.05Zm-3.41-3.16v.23a2.857,2.857,0,0,1-2.79,2.9c-1.78,0-2.79-1.28-2.79-3.22s1.07-3.18,2.7-3.18a2.806,2.806,0,0,1,2.88,2.88l.02-.02-.02.41Z" fill="#ffffff"/>
      <path id="Caminho_7172" data-name="Caminho 7172" d="M2222.12,732.78a3.816,3.816,0,0,0-3.75,2.31h-.05c0-.17-.03-1.5-.09-2.17h-2.4v13.26h2.79v-3.95a3.868,3.868,0,0,0,3.34,1.62c2.93,0,5.05-2.08,5.05-5.51s-1.94-5.56-4.89-5.56Zm-.62,8.74a2.827,2.827,0,0,1-2.88-2.88V738a2.829,2.829,0,0,1,2.79-2.88c1.76,0,2.77,1.28,2.77,3.22s-1.05,3.18-2.68,3.18Z" fill="#ffffff"/>
    </g>
    <path id="Caminho_7173" data-name="Caminho 7173" d="M2131.42,728h-14.7a1.4,1.4,0,0,0-1.29.86l-2.19,5.34a1.369,1.369,0,0,0,.13,1.3,1.385,1.385,0,0,0,1.16.62h5.77l-7.53,9.55a1.4,1.4,0,0,0-.16,1.47,1.374,1.374,0,0,0,1.25.78h14.7a1.4,1.4,0,0,0,1.29-.86l2.19-5.34a1.369,1.369,0,0,0-.13-1.3,1.385,1.385,0,0,0-1.16-.62h-5.77l7.53-9.55a1.4,1.4,0,0,0,.16-1.47A1.374,1.374,0,0,0,2131.42,728Zm-.66,12.85a.335.335,0,0,1,.29.16.339.339,0,0,1,.03.33l-2.19,5.34h0a.348.348,0,0,1-.32.22h-14.7a.349.349,0,0,1-.32-.2.344.344,0,0,1,.04-.37l7.93-10.06a.342.342,0,0,1,.61.21v2.98a1.387,1.387,0,0,0,1.39,1.39Zm.94-11.24-7.93,10.06a.342.342,0,0,1-.61-.21v-2.98a1.387,1.387,0,0,0-1.39-1.39h-7.24a.335.335,0,0,1-.29-.16.339.339,0,0,1-.03-.33l2.19-5.34h0a.348.348,0,0,1,.32-.22h14.7a.349.349,0,0,1,.32.2A.344.344,0,0,1,2131.7,729.61Z" fill="#FFFFFF"/>
  </g>
</svg>