<svg xmlns="http://www.w3.org/2000/svg" version="1.1" viewBox="0 0 237.8 84.3"><defs><clipPath clipPathUnits="userSpaceOnUse"><path d="M0 1080h1920V0H0Z"/></clipPath><clipPath clipPathUnits="userSpaceOnUse"><path d="M2.3 1078.7h1919.4V.4H2.3Z"/></clipPath><clipPath clipPathUnits="userSpaceOnUse"><path d="M0 1083.2h1921.7V-3.1H0Z"/></clipPath><clipPath clipPathUnits="userSpaceOnUse"><path d="M11.8 1078.2h1898.9V42H11.7Z"/></clipPath><clipPath clipPathUnits="userSpaceOnUse"><path d="M11.8 1017.6h1868.1V42H11.8Z"/></clipPath><clipPath clipPathUnits="userSpaceOnUse"/><clipPath clipPathUnits="userSpaceOnUse"><path d="M0 1080h1920V0H0Z"/></clipPath><clipPath clipPathUnits="userSpaceOnUse"/><clipPath clipPathUnits="userSpaceOnUse"/><clipPath clipPathUnits="userSpaceOnUse"/><clipPath clipPathUnits="userSpaceOnUse"/><clipPath clipPathUnits="userSpaceOnUse"><path d="M0 1080h1920V0H0Z"/></clipPath><clipPath clipPathUnits="userSpaceOnUse"/><clipPath clipPathUnits="userSpaceOnUse"><path d="M-308-1106.4h1677.7V12H-308Z"/></clipPath><radialGradient fx="0" fy="0" cx="0" cy="0" r="1" gradientUnits="userSpaceOnUse" gradientTransform="matrix(2279.4458 0 0 1280.5419 962 539.5)" spreadMethod="pad"><stop offset="0" stop-opacity="1" stop-color="#fff"/><stop offset="1" stop-opacity="1" stop-color="#000"/></radialGradient><radialGradient fx="0" fy="0" cx="0" cy="0" r="1" gradientUnits="userSpaceOnUse" gradientTransform="matrix(2282.1917 0 0 1289.9785 960.9 540)" spreadMethod="pad"><stop offset="0" stop-opacity="1" stop-color="#fff"/><stop offset="1" stop-opacity="1" stop-color="#000"/></radialGradient></defs><path d="M633.4 99.5V51.2c0-9 7.2-16.1 16.1-16.1h14.3a16 16 0 0 1 16 16v10.3c0 9-7.2 16.1-16 16.1h-20.2M683.8 35h6.2c3.7 0 6.6 3 6.6 6.7v36" fill="none" stroke="#939598" stroke-width="3" stroke-linecap="round" stroke-linejoin="round" stroke-miterlimit="10" stroke-dasharray="none" stroke-opacity="1" transform="translate(-535.6 -20.8)"/><path d="m695.3 29.5-2.8-2.8c-.7-.7-.7-1.9 0-2.6l2.8-2.8c.7-.7 1.8-.7 2.5 0l2.8 2.8c.7.7.7 1.9 0 2.6l-2.8 2.8c-.7.7-1.8.7-2.5 0" fill="#32bcad" fill-opacity="1" fill-rule="nonzero" stroke="none" stroke-width=".4" transform="translate(-535.6 -20.8)"/><path d="M708.5 35h6.1a12 12 0 0 1 8.4 3.5L737.4 53a4.8 4.8 0 0 0 6.7 0l14.3-14.3A12 12 0 0 1 767 35h5M708.5 77.4h6.1A12 12 0 0 0 723 74l14.4-14.4a4.8 4.8 0 0 1 6.7 0l14.3 14.3a12 12 0 0 0 8.5 3.5h5" fill="none" stroke="#939598" stroke-width="3" stroke-linecap="round" stroke-linejoin="round" stroke-miterlimit="10" stroke-dasharray="none" stroke-opacity="1" transform="translate(-535.6 -20.8)"/><path d="M596.8 86.6c-3 0-6-1.2-8.1-3.4l-11.8-11.7c-.8-.9-2.3-.9-3.1 0L562 83.3c-2.2 2.2-5.1 3.4-8.2 3.4h-2.3l15 14.9a12 12 0 0 0 16.8 0l15-15zM553.8 45c3.1 0 6 1.2 8.2 3.3l11.8 11.9c.9.8 2.2.8 3 0l11.9-11.8c2.1-2.2 5-3.4 8.1-3.4h1.4l-15-15a12 12 0 0 0-16.8 0l-14.9 15z" fill="#32bcad" fill-opacity="1" fill-rule="nonzero" stroke="none" stroke-width=".4" transform="translate(-535.6 -20.8)"/><path d="m610.6 57.4-9-9h-4.7c-2.2 0-4.3 1-5.8 2.4l-11.8 11.8a5.6 5.6 0 0 1-8 0l-11.8-11.8a8.1 8.1 0 0 0-5.7-2.4h-5l-.6-.1-9.1 9a12 12 0 0 0 0 17l9 9 .7-.1h5c2.1 0 4.2-.9 5.7-2.4L571.3 69a5.8 5.8 0 0 1 8 0l11.8 11.8a8.1 8.1 0 0 0 5.7 2.4h4.8l9-9a12 12 0 0 0 0-16.8" fill="#32bcad" fill-opacity="1" fill-rule="nonzero" stroke="none" stroke-width=".4" transform="translate(-535.6 -20.8)"/><path d="M645.7 95.4c-.7 0-1.5.1-2.2.3v3c.5.2 1.1.3 1.7.3 1.5 0 2.2-.5 2.2-1.8s-.6-1.8-1.7-1.8m-2.7 5.5V95h.4v.3c.7-.2 1.7-.4 2.3-.4.6 0 1.1 0 1.5.4.6.5.7 1.1.7 1.9 0 .7-.2 1.4-1 1.8-.4.3-1 .4-1.6.4-.6 0-1.2 0-1.8-.3v1.8zM651.6 95.4c-1.5 0-2.1.4-2.1 1.7 0 1.3.6 1.9 2.1 1.9s2.1-.5 2.1-1.8-.6-1.8-2-1.8m1.8 3.6c-.5.3-1.1.4-1.9.4-.8 0-1.4-.1-1.9-.4-.5-.4-.7-1-.7-1.8s.2-1.4.7-1.8c.5-.4 1.1-.5 2-.5.7 0 1.3.1 1.8.5.6.4.8 1 .8 1.8 0 .7-.2 1.4-.8 1.8M660.5 99.3l-1.6-3.5-1.7 3.5h-.4L655 95h.6l1.4 3.6 1.6-3.6h.5l1.6 3.6 1.5-3.6h.5l-1.7 4.3zM665.9 95.4c-1.4 0-1.8.6-2 1.4h4c-.1-1-.6-1.4-2-1.4m0 4c-.8 0-1.4-.1-1.8-.5-.5-.4-.7-1-.7-1.7s.3-1.4.8-1.9c.5-.3 1-.4 1.7-.4a3 3 0 0 1 1.7.4c.6.4.7 1.2.7 2H664c0 .9.3 1.6 2 1.6.7 0 1.4 0 2.1-.2v.4c-.7.2-1.5.3-2.2.3M669.8 99.3V95h.4v.3c1-.2 1.3-.4 2.1-.4v.5c-.7 0-1.1 0-2 .3v3.6zM675.3 95.4c-1.4 0-1.9.6-2 1.4h3.9c0-1-.5-1.4-2-1.4m0 4c-.8 0-1.3-.1-1.7-.5-.5-.4-.7-1-.7-1.7s.3-1.4.8-1.9c.5-.3 1-.4 1.7-.4a3 3 0 0 1 1.7.4c.6.4.7 1.2.7 2h-4.4c0 .9.3 1.6 2 1.6.8 0 1.5 0 2.2-.2v.4c-.7.2-1.5.3-2.2.3M683.2 95.7l-1.7-.3c-1.5 0-2.2.5-2.2 1.8 0 1.2.5 1.7 1.7 1.7l2.2-.3zm0 3.6V99c-.7.2-1.6.4-2.3.4-.5 0-1 0-1.5-.4s-.7-1.1-.7-1.8c0-.8.3-1.5 1-1.9.5-.3 1.1-.4 1.7-.4l1.8.3v-2h.5v6zM691 95.4c-.7 0-1.5.1-2.2.3v3a5 5 0 0 0 1.7.3c1.5 0 2.2-.5 2.2-1.8s-.6-1.8-1.7-1.8m1.2 3.6c-.4.3-1 .4-1.7.4a6 6 0 0 1-1.9-.3v.2h-.3v-6h.5v2a12 12 0 0 1 2.2-.4c.6 0 1 0 1.5.4.5.5.7 1.1.7 1.9 0 .7-.3 1.4-1 1.8M693.9 101v-.5h.6c.6 0 1-.2 1.3-.9l.2-.3-2.2-4.3h.5l2 3.7L698 95h.5l-2.4 4.8c-.4.9-.9 1.2-1.7 1.2h-.6M705.5 96.9H704v1.5h1.6c1.2 0 1.6-.2 1.6-.8 0-.7-.6-.7-1.6-.7m-.3-2.5H704V96h1.3c1.1 0 1.6-.2 1.6-.8 0-.7-.6-.8-1.6-.8m2.6 4.5c-.6.4-1.4.4-2.7.4h-2.5v-5.8h2.4c1.2 0 1.9 0 2.5.4.4.2.6.6.6 1.1 0 .6-.3 1-1 1.3.8.2 1.3.6 1.3 1.4 0 .6-.2 1-.6 1.2M713.4 97.5H712c-.9 0-1.2.1-1.2.5s.3.6 1 .6c.5 0 1.2-.1 1.7-.3zm.3 1.8V99c-.8.2-1.6.4-2.4.4-.4 0-.9 0-1.2-.3-.4-.2-.5-.6-.5-1 0-.5.2-1 .7-1.2a4 4 0 0 1 1.6-.2h1.5c0-.7-.4-1-1.6-1l-1.6.2v-1h1.9c.7 0 1.5 0 2 .4.4.4.5.8.5 1.5v2.5zM720.2 99.3v-2.4c0-.7-.4-1-1.1-1a8 8 0 0 0-1.8.2v3.2h-1.1V95h1v.3c.7-.2 1.6-.4 2.2-.4.6 0 1.1 0 1.5.4.3.4.5.8.5 1.4v2.6zM724.7 99.4c-.5 0-1.1 0-1.6-.4-.5-.5-.6-1.1-.6-1.8s.2-1.5.8-1.9c.6-.3 1.2-.4 2-.4h1.4v1h-1.3c-1.2 0-1.7.3-1.7 1.3 0 .9.4 1.3 1.3 1.3l1.8-.2v.8l-2 .3M730.3 95.8c-1.1 0-1.6.4-1.6 1.3 0 1 .5 1.4 1.6 1.4s1.6-.3 1.6-1.3-.4-1.4-1.6-1.4m2 3.2c-.5.3-1.1.4-2 .4-.8 0-1.5 0-2-.4-.6-.4-.8-1-.8-1.8s.2-1.5.8-1.8c.5-.4 1.2-.5 2-.5.9 0 1.5.1 2 .5.7.3.9 1 .9 1.8 0 .7-.3 1.4-.8 1.8M740 99.4c-.7 0-1.5-.1-2-.6-.7-.6-1-1.5-1-2.4 0-.9.3-1.9 1.2-2.5.7-.4 1.6-.5 2.5-.5h2v1.1h-2c-1.6 0-2.3.6-2.3 1.9 0 1.4.6 2 1.8 2 .8 0 1.7-.2 2.6-.4v1c-.9.2-1.8.4-2.8.4M746.3 95.7c-1 0-1.4.3-1.4 1h2.8c0-.7-.4-1-1.4-1m-.2 3.7c-.7 0-1.3 0-1.8-.5-.5-.4-.7-1-.7-1.7s.3-1.4.8-1.8c.6-.4 1.2-.5 2-.5.5 0 1.2 0 1.8.4.6.5.7 1.3.7 2.1h-4c0 .7.3 1.1 1.5 1.1l2.3-.2v.8c-.8.2-1.7.3-2.6.3M754.2 99.3v-2.4c0-.7-.4-1-1.1-1a8 8 0 0 0-1.7.2v3.2h-1.2V95h1v.3c.7-.2 1.6-.4 2.3-.4.5 0 1 0 1.4.4.4.4.5.8.5 1.4v2.6zM758.8 99.4c-.6 0-1.1-.2-1.4-.6-.2-.3-.3-.7-.3-1.3V96h-.9V95h.9l.1-1.3h1V95h1.7v1h-1.6V98c.2.3.5.4.9.4l.8-.1v.9l-1.2.1M761.1 99.3V95h1v.3c.8-.2 1.4-.4 2.1-.4h.2v1h-.4c-.6 0-1 0-1.7.2v3.2zM768.7 97.5h-1.5c-.9 0-1.2.1-1.2.5s.2.6 1 .6l1.7-.3zm.3 1.8V99c-.8.2-1.6.4-2.4.4-.4 0-1 0-1.3-.3-.3-.2-.5-.6-.5-1 0-.5.3-1 .8-1.2a4 4 0 0 1 1.6-.2h1.5c0-.7-.4-1-1.6-1l-1.6.2v-1h1.8c.8 0 1.5 0 2 .4s.6.8.6 1.5v2.5zM771.4 93.2h1.2v6h-1.2z" fill="#939598" fill-opacity="1" fill-rule="nonzero" stroke="none" stroke-width=".4" transform="translate(-535.6 -20.8)"/></svg>